<svg width="2660" height="1001" viewBox="0 0 2660 1001" fill="none" xmlns="http://www.w3.org/2000/svg">
<path d="M199.444 553.144C199.444 457.414 242.544 368.336 294.109 298.437H310.021C280.227 338.281 222.587 421.829 213.503 525.484C213.503 525.484 310.021 446.579 447.64 525.484C585.259 604.388 681.777 525.484 681.777 525.484C672.692 421.829 615.052 338.281 585.259 298.437H601.17C652.735 368.336 695.835 457.414 695.835 553.144C695.835 680.372 594.512 801.228 447.64 801.228C300.767 801.228 199.444 680.372 199.444 553.144Z" fill="black" style="fill:black;fill-opacity:1;"/>
<path d="M538.559 199.076L575.208 248.757H314.918L351.567 199.076H538.559Z" fill="black" style="fill:black;fill-opacity:1;"/>
<path d="M2410.76 702.426C2394.6 702.426 2380.36 699.155 2368.05 692.614C2355.74 685.687 2346.12 676.26 2339.19 664.331C2332.65 652.403 2329.38 638.55 2329.38 622.774V451.926H2282.05V400.556H2329.38L2336.88 319.75H2384.79V400.556H2460.98V451.926H2384.79V618.156C2384.79 627.391 2387.87 635.087 2394.02 641.244C2400.18 647.4 2408.07 650.479 2417.69 650.479H2460.98V702.426H2410.76Z" fill="black" style="fill:black;fill-opacity:1;"/>
<path d="M2144.27 708.198C2115.79 708.198 2090.78 702.041 2069.23 689.728C2048.07 677.414 2031.52 659.714 2019.59 636.626C2008.05 613.154 2002.28 584.679 2002.28 551.202C2002.28 518.495 2008.05 490.405 2019.59 466.933C2031.52 443.076 2048.07 425.183 2069.23 413.254C2090.4 400.941 2114.83 394.784 2142.54 394.784C2171.78 394.784 2196.79 401.71 2217.57 415.563C2238.73 429.031 2254.7 446.924 2265.48 469.242C2276.25 491.56 2281.64 515.032 2281.64 539.659C2281.64 545.431 2281.25 551.01 2280.48 556.397C2280.1 561.784 2279.52 566.209 2278.75 569.672H2039.8V523.497H2226.81C2224.88 509.645 2220.65 496.754 2214.11 484.826C2207.57 472.512 2198.14 462.7 2185.83 455.389C2173.9 448.078 2159.47 444.422 2142.54 444.422C2123.68 444.422 2107.9 449.04 2095.21 458.275C2082.51 467.125 2073.08 479.246 2066.92 494.638C2060.77 510.03 2057.69 527.922 2057.69 548.316C2057.69 571.789 2060.96 591.798 2067.5 608.344C2074.43 624.89 2084.43 637.396 2097.52 645.861C2110.6 654.327 2126.18 658.56 2144.27 658.56C2160.81 658.56 2174.67 655.289 2185.83 648.747C2196.98 641.821 2206.6 631.816 2214.68 618.734H2274.14C2267.98 637.204 2258.94 653.172 2247.01 666.64C2235.08 679.723 2220.46 689.92 2203.14 697.231C2185.83 704.542 2166.2 708.198 2144.27 708.198Z" fill="black" style="fill:black;fill-opacity:1;"/>
<path d="M1758.73 702.426V298.394H1814.14V539.659L1946.89 400.556H2013.85L1874.17 547.739L2022.51 702.426H1954.4L1814.14 556.974V702.426H1758.73Z" fill="black" style="fill:black;fill-opacity:1;"/>
<path d="M1596.61 708.198C1568.14 708.198 1543.13 702.041 1521.58 689.728C1500.42 677.414 1483.87 659.714 1471.94 636.626C1460.4 613.154 1454.62 584.679 1454.62 551.202C1454.62 518.11 1460.4 489.828 1471.94 466.356C1483.87 442.883 1500.42 425.183 1521.58 413.254C1543.13 400.941 1568.14 394.784 1596.61 394.784C1618.55 394.784 1638.17 398.632 1655.49 406.328C1672.8 413.639 1687.42 424.221 1699.35 438.073C1711.28 451.541 1720.32 467.702 1726.48 486.557H1668.76C1661.07 472.705 1651.25 462.508 1639.33 455.966C1627.4 449.04 1613.16 445.577 1596.61 445.577C1579.68 445.577 1564.68 449.617 1551.59 457.698C1538.51 465.778 1528.31 477.899 1521 494.061C1513.69 509.837 1510.04 528.884 1510.04 551.202C1510.04 573.905 1513.69 593.337 1521 609.499C1528.31 625.275 1538.51 637.204 1551.59 645.284C1564.68 653.365 1579.68 657.405 1596.61 657.405C1613.16 657.405 1627.4 653.942 1639.33 647.016C1651.25 640.09 1661.07 629.7 1668.76 615.848H1726.48C1720.32 635.087 1711.28 651.633 1699.35 665.486C1687.42 678.954 1672.8 689.535 1655.49 697.231C1638.17 704.542 1618.55 708.198 1596.61 708.198Z" fill="black" style="fill:black;fill-opacity:1;"/>
<path d="M1280.72 708.198C1259.18 708.198 1239.74 703.388 1222.43 693.768C1205.5 683.764 1192.22 669.526 1182.6 651.056C1172.98 632.201 1168.17 610.461 1168.17 585.834V400.556H1223.58V582.371C1223.58 598.147 1226.28 611.615 1231.66 622.774C1237.44 633.933 1245.52 642.591 1255.91 648.747C1266.3 654.519 1278.42 657.405 1292.27 657.405C1306.12 657.405 1318.43 654.135 1329.21 647.593C1340.37 640.667 1349.03 631.432 1355.18 619.888C1361.72 608.344 1364.99 595.838 1364.99 582.371V400.556H1420.98V702.426H1374.81L1367.88 663.754H1364.99C1355.37 679.146 1343.06 690.497 1328.05 697.808C1313.43 704.735 1297.66 708.198 1280.72 708.198Z" fill="black" style="fill:black;fill-opacity:1;"/>
<path d="M834.773 702.426V298.394H1011.97C1036.98 298.394 1058.53 303.011 1076.62 312.246C1094.7 321.096 1108.36 333.987 1117.6 350.918C1127.22 367.849 1132.03 387.858 1132.03 410.945C1132.03 429.8 1127.22 447.116 1117.6 462.892C1107.98 478.669 1095.47 490.213 1080.08 497.524C1096.24 504.065 1109.9 515.801 1121.06 532.732C1132.22 549.663 1137.8 568.71 1137.8 589.874C1137.8 612.962 1132.99 632.971 1123.37 649.902C1114.13 666.833 1100.47 679.915 1082.39 689.151C1064.3 698.001 1042.75 702.426 1017.74 702.426H834.773ZM1011.97 648.747C1024.67 648.747 1035.83 646.246 1045.45 641.244C1055.45 636.242 1063.15 629.123 1068.53 619.888C1073.92 610.653 1076.62 599.686 1076.62 586.988C1076.62 567.748 1070.65 552.742 1058.72 541.967C1047.18 530.808 1031.59 525.229 1011.97 525.229H895.955V648.747H1011.97ZM1006.2 475.591C1018.9 475.591 1030.06 473.089 1039.68 468.087C1049.68 463.085 1057.38 455.966 1062.76 446.731C1068.15 437.496 1070.84 426.53 1070.84 413.831C1070.84 394.592 1064.88 379.585 1052.95 368.811C1041.41 357.652 1025.82 352.072 1006.2 352.072H895.955V475.591H1006.2Z" fill="black" style="fill:black;fill-opacity:1;"/>
</svg>
