<?xml version="1.0" encoding="UTF-8"?>
<svg width="3300px" height="800px" viewBox="0 0 3300 800" version="1.1" xmlns="http://www.w3.org/2000/svg" xmlns:xlink="http://www.w3.org/1999/xlink">
    <title>logo</title>
    <defs>
        <path d="M357.350285,0 C554.809293,0 714.881445,159.675068 714.881445,356.644245 C714.881445,459.372183 671.340648,551.95585 601.663628,617.033845 L642.62989,793.95427 C625.621345,797.908918 607.895105,800 589.679255,800 C514.899818,800 448.3716,764.759958 405.873838,710.019965 C390.017535,712.17847 373.813863,713.28849 357.350285,713.28849 C163.733039,713.28849 6.06200335,559.766255 0,368.097688 L357.350285,368.096125 L357.350285,367.550797 C434.039258,367.550797 496.207953,305.536322 496.207953,229.037589 C496.207953,152.538856 434.039258,90.5243805 357.350285,90.5243805 C280.661313,90.5243805 218.492617,152.538856 218.492617,229.037589 C218.492617,252.04744 224.117207,273.746857 234.069725,292.842393 C169.987401,292.842393 134.946174,270.24918 128.946043,225.062754 C112.542385,269.884645 71.4018075,292.477283 5.52431075,292.840667 C35.6746838,126.316561 181.724393,0 357.350285,0 Z" id="path-1"></path>
    </defs>
    <g id="页面-1" stroke="none" stroke-width="1" fill="none" fill-rule="evenodd">
        <g id="画板" transform="translate(-100.000000, -112.000000)">
            <g id="logo" transform="translate(100.000000, 112.000000)">
                <g id="icon" transform="translate(357.440723, 400.000000) scale(-1, 1) translate(-357.440723, -400.000000) ">
                    <g id="形状结合" fill="#00D89A" fill-rule="nonzero">
                        <path d="M357.350285,0 C554.809293,0 714.881445,159.675068 714.881445,356.644245 C714.881445,459.372183 671.340648,551.95585 601.663628,617.033845 L642.62989,793.95427 C625.621345,797.908918 607.895105,800 589.679255,800 C514.899818,800 448.3716,764.759958 405.873838,710.019965 C390.017535,712.17847 373.813863,713.28849 357.350285,713.28849 C163.733039,713.28849 6.06200335,559.766255 0,368.097688 L357.350285,368.096125 L357.350285,367.550797 C434.039258,367.550797 496.207953,305.536322 496.207953,229.037589 C496.207953,152.538856 434.039258,90.5243805 357.350285,90.5243805 C280.661313,90.5243805 218.492617,152.538856 218.492617,229.037589 C218.492617,252.04744 224.117207,273.746857 234.069725,292.842393 C169.987401,292.842393 134.946174,270.24918 128.946043,225.062754 C112.542385,269.884645 71.4018075,292.477283 5.52431075,292.840667 C35.6746838,126.316561 181.724393,0 357.350285,0 Z" id="path-1"></path>
                    </g>
                    <g id="椭圆形-Clipped">
                        <mask id="mask-2" fill="white">
                            <use xlink:href="#path-1"></use>
                        </mask>
                        <g id="path-1"></g>
                        <ellipse id="椭圆形" fill="#00FFD6" fill-rule="nonzero" mask="url(#mask-2)" cx="491.287798" cy="268.846503" rx="365.184733" ry="364.278833"></ellipse>
                    </g>
                </g>
                <g id="字体" transform="translate(913.526370, 225.000000)" fill="#FFFFFF" fill-rule="nonzero">
                    <path d="M437.547165,324.90302 L386.357803,263.547598 L131.223523,263.547598 C122.285698,263.547598 113.889559,261.775108 106.035107,258.230128 C98.1806545,254.685148 91.341864,249.844887 85.5187358,243.709345 C79.6956073,237.573803 75.091273,230.552015 71.7057333,222.643983 C68.8050825,215.868568 67.1470365,208.692806 66.7315947,201.116699 C66.6621473,199.850234 66.6274235,163.965708 66.6274235,162.676868 C66.6274235,162.446621 66.716927,126.66057 66.8846125,125.281805 C67.5162748,120.088072 69.2573292,108.692203 71.5026007,103.323307 C74.752719,95.5516203 79.08621,88.6661785 84.5030738,82.6669818 C89.9199375,76.667785 96.4201738,71.7593513 104.003783,67.9416805 C111.587392,64.1240098 119.577266,62.078829 127.973405,61.8061383 L437.547165,61.8061383 L386.357803,0.45071667 L114.972932,0.45071667 C98.993184,1.54147972 84.0290983,5.70001385 70.080674,12.9263191 C56.13225,20.1526243 43.9443068,29.5604558 33.5168443,41.149813 C23.0893815,52.7391705 14.8963752,66.0328453 8.9378251,81.0308373 C3.34972053,95.0963978 0.381960875,110.017054 0.0345461233,125.281805 C0.0115153744,126.293733 0,161.65967 0,162.676868 C0,163.752734 0.0130296124,199.432622 0.0390888373,200.502784 C0.415935505,215.978573 3.51760253,230.857969 9.34408988,245.140971 C15.5734831,260.411655 24.1050435,273.909848 34.9387707,285.63555 C45.7724983,297.361253 58.502128,306.70091 73.12766,313.654525 C87.753192,320.60814 103.326675,324.357638 119.848109,324.90302 L437.547165,324.90302 Z" id="路径"></path>
                    <polygon id="路径" points="924.44217 325.350482 873.25281 270.130602 553.83582 270.130602 553.83582 188.261023 873.25281 188.261023 873.25281 133.041143 553.83582 133.041143 553.83582 54.8108432 924.44217 54.8108432 873.25281 0 487.208397 0 487.208397 325.350482"></polygon>
                    <polygon id="路径" transform="translate(1192.876965, 162.617414) scale(-1, 1) translate(-1192.876965, -162.617414) " points="1223.76655 325.234827 1223.76655 54.8108432 1366.14889 54.8108432 1411.65055 0 1020.0113 0 974.103383 54.8108432 1156.73286 54.8108432 1156.73286 325.234827"></polygon>
                    <path d="M1779.01086,324.911325 C1795.80313,324.365942 1811.44433,320.616445 1825.93444,313.66283 C1840.42455,306.709215 1853.08647,297.369557 1863.9202,285.643855 C1874.75392,273.918152 1883.28548,260.419957 1889.51488,245.149276 C1895.74427,229.878593 1898.85897,213.789838 1898.85897,196.883011 L1898.85897,0.409036145 L1833.04407,0.409036145 L1833.04407,203.427589 C1833.04407,212.426384 1831.3513,220.811625 1827.96576,228.583312 C1824.58022,236.354999 1819.97589,243.035922 1814.15276,248.626083 C1808.32963,254.216245 1801.49084,258.647467 1793.63639,261.919757 C1785.78194,265.192047 1777.3858,266.828192 1768.44797,266.828192 L1592.12906,266.828192 C1583.19123,266.828192 1574.7951,265.192047 1566.94064,261.919757 C1559.08619,258.647467 1552.2474,254.216245 1546.42427,248.626083 C1540.60114,243.035922 1535.99681,236.354999 1532.61127,228.583312 C1529.22573,220.811625 1527.53296,212.426384 1527.53296,203.427589 L1527.53296,0 L1461.3118,0 L1461.3118,196.883011 C1461.3118,213.789838 1464.4265,229.878593 1470.65589,245.149276 C1476.88528,260.419957 1485.41684,273.918152 1496.25057,285.643855 C1507.0843,297.369557 1519.81393,306.709215 1534.43946,313.66283 C1549.06499,320.616445 1564.63848,324.365942 1581.15991,324.911325 L1779.01086,324.911325 Z" id="路径"></path>
                    <path d="M2303.59561,325.076537 C2314.1585,324.258465 2324.45054,321.59973 2334.47174,317.100332 C2344.49294,312.600935 2353.36305,306.738082 2361.08208,299.511777 C2368.80111,292.285472 2374.96279,283.900232 2379.56713,274.356055 C2383.47341,266.258855 2385.72266,258.12397 2386.31488,249.268574 C2386.42071,247.686108 2386.47363,223.047145 2386.47363,221.393458 C2386.47363,219.563955 2386.41742,203.310875 2386.30501,201.483031 C2385.73047,192.140695 2383.68764,182.524995 2380.17652,174.656623 C2375.97846,165.248792 2370.29075,157.136242 2363.1134,150.318973 C2355.93606,143.501704 2347.53992,138.184234 2337.92499,134.366563 C2328.31005,130.548892 2317.9503,128.503712 2306.84573,128.231021 L2032.61701,128.231021 C2027.47099,128.231021 2023.06979,126.663049 2019.4134,123.527105 C2016.48775,121.017884 2014.73258,119.763746 2014.14788,115.945122 C2014.00185,114.991353 2013.92883,96.998348 2013.92883,95.962894 C2013.92883,94.8700955 2014.00715,78.268076 2014.16378,77.2601957 C2014.74978,73.4895615 2016.43195,69.6640282 2019.21027,67.0819277 C2022.73123,63.8096385 2026.9293,62.0371485 2031.80448,61.7644577 L2362.09774,61.7644577 L2310.90838,0 L2024.89798,0 C2014.33509,0.545381525 2004.38161,3.06777107 1995.03752,7.56716867 C1985.69343,12.0665663 1977.56813,17.9975903 1970.66163,25.360241 C1963.75513,32.7228915 1958.33826,41.244478 1954.41104,50.925 C1950.95479,59.4445715 1949.01942,67.7901927 1948.60492,77.2601957 C1948.54844,78.5506605 1948.5202,94.6547805 1948.5202,95.962894 C1948.5202,97.569679 1948.56281,114.379758 1948.64803,115.945122 C1949.14132,125.006201 1951.06233,135.283125 1954.41104,142.956322 C1958.33826,151.955117 1963.68742,159.863149 1970.4585,166.680419 C1977.22958,173.497688 1985.21945,178.88333 1994.42812,182.837346 C2003.63679,186.791362 2013.52256,189.177406 2024.08545,189.995479 L2303.59561,189.995479 C2308.47079,190.26817 2312.66886,192.040659 2316.18982,195.312949 C2318.44768,197.411339 2319.98159,199.013537 2320.79157,201.483031 C2321.2447,202.864537 2321.47126,219.632609 2321.47126,221.393458 C2321.47126,222.825643 2321.33157,247.85875 2321.05219,249.268574 C2320.32086,252.95898 2318.63236,256.141755 2315.98669,258.608162 C2312.33031,262.016797 2307.92911,263.721115 2302.78308,263.721115 L1949.73899,263.721115 L2004.7672,325.076537 L2303.59561,325.076537 Z" id="路径"></path>
                </g>
            </g>
        </g>
    </g>
</svg>